<?xml version="1.0" encoding="UTF-8"?>
<!DOCTYPE svg PUBLIC "-//W3C//DTD SVG 1.1//EN" "http://www.w3.org/Graphics/SVG/1.1/DTD/svg11.dtd">
<!-- Creator: CorelDRAW -->
<svg xmlns="http://www.w3.org/2000/svg" xml:space="preserve" width="7.01487in" height="1.91801in" style="shape-rendering:geometricPrecision; text-rendering:geometricPrecision; image-rendering:optimizeQuality; fill-rule:evenodd; clip-rule:evenodd" viewBox="0 0 7.01487 1.91801" xmlns:xlink="http://www.w3.org/1999/xlink">
 <defs>
  <style type="text/css">
   <![CDATA[
    .fil0 {fill:none}
    .fil3 {fill:#373435}
    .fil1 {fill:#373435;fill-rule:nonzero}
    .fil2 {fill:#0072B9;fill-rule:nonzero}
   ]]>
  </style>
 </defs>
 <g id="Layer_x0020_1">
  <metadata id="CorelCorpID_0Corel-Layer"/>
  <polygon class="fil0" points="-0,0 7.01487,0 7.01487,1.91801 -0,1.91801 "/>
  <g id="_315225832">
   <path id="_315226552" class="fil1" d="M3.48461 0.95474l-0.166039 -0.24409 0.127724 0 0.104307 0.161075 0.105016 -0.161075 0.124173 0 -0.166039 0.242673 0.173134 0.254027 -0.127724 0 -0.111398 -0.170295 -0.11211 0.170295 -0.124177 0 0.173134 -0.25261zm-0.497405 0.261126c-0.0383149,0 -0.073559,-0.00674015 -0.105728,-0.0202283 -0.0321653,-0.0134803 -0.0599606,-0.031689 -0.083374,-0.0546338 -0.0234134,-0.0229409 -0.041626,-0.0499055 -0.0546338,-0.0808897 -0.0130079,-0.0309842 -0.0195118,-0.0642126 -0.0195118,-0.0996968l0 -0.00141732c0,-0.0354764 0.00662204,-0.0687086 0.0198661,-0.0996929 0.0132441,-0.0309842 0.0315748,-0.058185 0.0549921,-0.0816023 0.0234134,-0.0234134 0.0513228,-0.0418622 0.0837244,-0.0553464 0.0324055,-0.0134803 0.0677677,-0.0202205 0.106083,-0.0202205 0.0383149,0 0.073559,0.00674015 0.105728,0.0202205 0.0321653,0.0134842 0.0599567,0.0316929 0.08337,0.0546417 0.0234212,0.0229409 0.0416299,0.0499015 0.0546378,0.0808858 0.0130079,0.0309842 0.0195157,0.0642165 0.0195157,0.0996929l0 0.00142126c0,0.0354803 -0.00662598,0.0687086 -0.0198701,0.0996929 -0.013248,0.0309842 -0.0315748,0.058185 -0.0549921,0.0815984 -0.0234134,0.0234173 -0.0513267,0.0418661 -0.0837283,0.0553464 -0.0324055,0.0134882 -0.0677637,0.0202283 -0.106079,0.0202283zm0.00141732 -0.10076c0.0217638,0 0.0418661,-0.00402362 0.060311,-0.012063 0.0184527,-0.0080433 0.0341811,-0.0191614 0.0471889,-0.0333504 0.0130118,-0.014189 0.0231811,-0.0306299 0.0305118,-0.0493149 0.00733464,-0.018685 0.0109961,-0.0386693 0.0109961,-0.0599606l0 -0.00141732c0,-0.0212835 -0.00366142,-0.0413937 -0.0109961,-0.060311 -0.0073307,-0.0189252 -0.0177401,-0.0354803 -0.0312205,-0.0496693 -0.0134803,-0.0141929 -0.0294488,-0.0254291 -0.0478976,-0.0337047 -0.0184449,-0.00827952 -0.0385512,-0.0124173 -0.060311,-0.0124173 -0.0222362,0 -0.0424567,0.00401968 -0.0606693,0.012059 -0.0182126,0.0080433 -0.0338228,0.0191575 -0.0468346,0.0333504 -0.0130079,0.0141929 -0.0231732,0.0306299 -0.0305118,0.0493149 -0.0073307,0.018689 -0.0109961,0.0386732 -0.0109961,0.0599567l0 0.00142126c0,0.0212874 0.00366535,0.0413937 0.0109961,0.0603149 0.00733858,0.0189173 0.0177441,0.0354764 0.0312244,0.0496693 0.0134803,0.0141929 0.0293268,0.0254252 0.0475433,0.0337047 0.0182126,0.00827952 0.038433,0.0124173 0.0606653,0.0124173zm-0.754976 -0.404456l0.23061 0c0.0572401,0 0.10052,0.0146653 0.12985,0.043996 0.0227086,0.0227047 0.0340551,0.0508504 0.0340551,0.0844409l0 0.00141732c0,0.014189 -0.00176772,0.0267283 -0.00531889,0.0376063 -0.00354724,0.0108779 -0.00827559,0.0206968 -0.0141929,0.0294449 -0.00591338,0.0087559 -0.0127677,0.0164409 -0.0205787,0.023063 -0.00780315,0.00662598 -0.0162008,0.0122953 -0.025189,0.0170275 0.0288583,0.0108819 0.0515669,0.0256653 0.0681181,0.0443464 0.016559,0.018689 0.0248346,0.0445866 0.0248346,0.0777007l0 0.00141732c0,0.0227086 -0.00437401,0.0425787 -0.013122,0.0596023 -0.0087559,0.0170315 -0.0212913,0.0312244 -0.0376102,0.0425787 -0.0163189,0.0113504 -0.0359488,0.0198661 -0.0588937,0.0255433 -0.0229449,0.00567716 -0.0483701,0.00851574 -0.0762795,0.00851574l-0.236283 0 0 -0.496701zm0.207189 0.200811c0.0241299,0 0.0432874,-0.00413779 0.0574803,-0.0124213 0.014189,-0.00827559 0.0212874,-0.0216378 0.0212874,-0.0400905l0 -0.00141732c0,-0.0165551 -0.0061496,-0.0292086 -0.0184488,-0.0379606 -0.0123031,-0.00875196 -0.0300394,-0.0131299 -0.0532204,-0.0131299l-0.107854 0 0 0.10502 0.100756 0zm0.0290945 0.200094c0.024126,0 0.0430512,-0.00437401 0.0567677,-0.013122 0.0137165,-0.0087559 0.0205787,-0.0223543 0.0205787,-0.0408031l0 -0.00141732c0,-0.016559 -0.00638976,-0.029685 -0.0191575,-0.0393858 -0.0127756,-0.00969291 -0.0333504,-0.0145433 -0.0617362,-0.0145433l-0.126303 0 0 0.109272 0.12985 0zm-0.675504 -0.400905l0.109272 0 0 0.397362 0.247638 0 0 0.0993385 -0.356909 0 0 -0.496701zm-0.124173 -0.000169291l0 0.49687 -0.109279 0 0 -0.496787 0.109279 -8.26771e-005zm-0.504508 -0.00337401l0.100756 0 0.212874 0.500244 -0.11424 0 -0.0454134 -0.111405 -0.210027 0 -0.0454173 0.111405 -0.111398 0 0.212866 -0.500244zm0.114949 0.292338l-0.0659882 -0.161071 -0.0659921 0.161071 0.13198 0zm-0.901149 -0.288795l0.117787 0 0.130563 0.210035 0.130559 -0.210035 0.117787 0 0 0.496701 -0.108563 0 0 -0.324271 -0.139783 0.212157 -0.00283858 0 -0.138366 -0.210031 0 0.322145 -0.107146 0 0 -0.496701z"/>
   <path id="_315226288" class="fil1" d="M0.136213 1.15413l0 0.0532165 -0.0354764 0 0 -0.144905 0.0354764 0 0 0.0532165 0.139405 0 0 0.0384724 -0.139405 0zm-0.0354764 -0.121165l0 -0.0384764 0.0692047 0 0 -0.0709527 -0.0692047 0 0 -0.0384724 0.174882 0 0 0.0384724 -0.0702007 0 0 0.0709527 0.0702007 0 0 0.0384764 -0.174882 0zm0 -0.189874l0 -0.131913 0.0342283 0 0 0.0936889 0.0354764 0 0 -0.0824448 0.0342244 0 0 0.0824448 0.0367283 0 0 -0.094937 0.0342244 0 0 0.133161 -0.174882 0z"/>
   <path id="_315226312" class="fil2" d="M4.09923 0.710657l0.0944685 0 0.118618 0.368645 0.122173 -0.370063 0.07387 0 0.122169 0.370063 0.118622 -0.368645 0.0916259 0 -0.173311 0.50076 -0.0752913 0 -0.122169 -0.357279 -0.122173 0.357279 -0.0752913 0 -0.173311 -0.50076zm1.0697 0.425468c0.024622,0 0.0472323,-0.00461811 0.0678307,-0.0138504 0.0205984,-0.00923228 0.0382401,-0.0217835 0.0529173,-0.0376456 0.0146811,-0.0158622 0.0261653,-0.0344488 0.0344488,-0.0557598 0.0082874,-0.0213071 0.0124331,-0.0440354 0.0124331,-0.068185l0 -0.00142126c0,-0.0241496 -0.00414567,-0.047 -0.0124331,-0.0685433 -0.00828346,-0.0215472 -0.0198858,-0.0402519 -0.0348031,-0.0561141 -0.0149173,-0.0158622 -0.0327913,-0.0285315 -0.053626,-0.038 -0.0208346,-0.00947244 -0.0435669,-0.0142087 -0.0681889,-0.0142087 -0.024622,0 -0.0472362,0.00461811 -0.0678346,0.0138543 -0.0205984,0.00923228 -0.0382362,0.0217795 -0.0529173,0.0376456 -0.0146772,0.0158622 -0.0261614,0.0344488 -0.0344488,0.0557559 -0.0082874,0.021311 -0.0124291,0.0440393 -0.0124291,0.0681889l0 0.00142126c0,0.0241496 0.00414173,0.046996 0.0124291,0.0685433 0.0082874,0.0215433 0.0198898,0.040248 0.0348071,0.0561141 0.0149134,0.0158622 0.0327913,0.0285275 0.053626,0.038 0.0208346,0.0094685 0.043563,0.0142047 0.0681889,0.0142047zm-0.00142126 0.0802637c-0.0383543,0 -0.0733976,-0.00674803 -0.105122,-0.0202441 -0.0317283,-0.0134961 -0.0589567,-0.0318425 -0.081685,-0.0550472 -0.0227283,-0.0232047 -0.0404882,-0.050311 -0.0532716,-0.0813307 -0.0127874,-0.0310157 -0.0191811,-0.0640433 -0.0191811,-0.0990826l0 -0.00142126c0,-0.0350433 0.0063937,-0.0680708 0.0191811,-0.0990866 0.0127835,-0.0310157 0.0307795,-0.0582441 0.0539803,-0.081685 0.0232047,-0.0234409 0.0506693,-0.0420236 0.0823937,-0.0557559 0.0317283,-0.0137323 0.0667677,-0.0205984 0.105126,-0.0205984 0.0383543,0 0.0733976,0.00674409 0.105122,0.0202401 0.0317283,0.0134961 0.0589567,0.0318464 0.081685,0.0550512 0.0227283,0.0232008 0.0404882,0.050311 0.0532716,0.0813267 0.0127874,0.0310157 0.0191772,0.0640433 0.0191772,0.0990866l0 0.00142126c0,0.0350394 -0.00638976,0.0680708 -0.0191772,0.0990866 -0.0127835,0.0310157 -0.0307795,0.0582441 -0.0539803,0.0816811 -0.0232047,0.0234409 -0.0506693,0.0420275 -0.0823976,0.0557598 -0.0317244,0.0137323 -0.0667677,0.0205984 -0.105122,0.0205984zm0.581732 -0.259256c0.031252,0 0.0561141,-0.00746063 0.0745826,-0.0223779 0.0184646,-0.0149134 0.0277008,-0.0351575 0.0277008,-0.0607283l0 -0.00142126c0,-0.0269921 -0.00899606,-0.0474724 -0.0269921,-0.0614409 -0.0179921,-0.0139685 -0.0433267,-0.0209527 -0.076,-0.0209527l-0.127146 0 0 0.166921 0.127854 0zm-0.21522 -0.246476l0.221614 0c0.031252,0 0.0589527,0.00438189 0.0831023,0.0131417 0.0241496,0.00875984 0.0442756,0.0209527 0.0603779,0.0365827 0.0132559,0.0137323 0.023437,0.0295945 0.0305433,0.0475866 0.00710236,0.0179961 0.0106535,0.0378819 0.0106535,0.0596653l0 0.00142126c0,0.0203622 -0.00296063,0.0387126 -0.00887795,0.0550472 -0.00592126,0.0163386 -0.0140905,0.0307795 -0.0245079,0.0433307 -0.0104173,0.0125472 -0.0228464,0.0232008 -0.0372913,0.0319606 -0.0144409,0.00875984 -0.0304212,0.0155079 -0.0479449,0.0202441l0.134248 0.188228 -0.102992 0 -0.122173 -0.173311 -0.00142126 0 -0.107965 0 0 0.173311 -0.0873661 0 0 -0.497208zm0.513543 0l0.0873661 0 0 0.250027 0.236531 -0.250027 0.107252 0 -0.206697 0.213799 0.215933 0.283409 -0.105835 0 -0.16976 -0.223744 -0.0774252 0.0795551 0 0.144189 -0.0873661 0 0 -0.497208zm0.688988 0.504311c-0.0383543,0 -0.0750551,-0.00651181 -0.110094,-0.0195315 -0.0350433,-0.0130236 -0.0674803,-0.0330315 -0.097311,-0.0600197l0.052563 -0.0625078c0.0241496,0.0208346 0.0485354,0.0368189 0.0731574,0.0479449 0.024626,0.0111299 0.052563,0.0166929 0.0838149,0.0166929 0.0269921,0 0.0484212,-0.0056811 0.0642834,-0.0170472 0.0158622,-0.0113661 0.0237953,-0.0265197 0.0237953,-0.0454606l0 -0.00141732c0,-0.00899999 -0.00153937,-0.0169291 -0.00461811,-0.0237953 -0.00307874,-0.00686614 -0.00875984,-0.0133779 -0.0170472,-0.0195354 -0.0082874,-0.00615354 -0.0196496,-0.0118386 -0.0340945,-0.0170472 -0.0144409,-0.00520866 -0.0332638,-0.0104173 -0.0564685,-0.015626 -0.0265157,-0.00615354 -0.0500748,-0.0131417 -0.0706732,-0.0209527 -0.0205984,-0.00781496 -0.0378819,-0.0172835 -0.0518504,-0.0284134 -0.0139724,-0.011126 -0.024626,-0.0247401 -0.0319645,-0.0408425 -0.00733858,-0.0160984 -0.0110118,-0.0355118 -0.0110118,-0.0582441l0 -0.00141732c0,-0.021311 0.00426378,-0.0408425 0.0127874,-0.0586023 0.00852362,-0.0177559 0.0202441,-0.0329094 0.0351575,-0.0454567 0.0149173,-0.0125512 0.0327953,-0.022374 0.0536299,-0.0294764 0.0208346,-0.0071063 0.043563,-0.0106575 0.0681889,-0.0106575 0.0364606,0 0.0692519,0.00532677 0.098374,0.0159842 0.029122,0.0106535 0.0564685,0.0261614 0.0820393,0.0465236l-0.0468779 0.0660551c-0.0227323,-0.0165709 -0.0452244,-0.0292401 -0.0674803,-0.038 -0.0222559,-0.00875984 -0.044748,-0.0131378 -0.0674763,-0.0131378 -0.0255709,0 -0.0454606,0.0056811 -0.0596653,0.0170472 -0.0142047,0.0113622 -0.0213071,0.0253307 -0.0213071,0.0419055l0 0.00142126c0,0.0094685 0.00165354,0.017874 0.0049685,0.0252165 0.00331496,0.00733858 0.00935433,0.0139685 0.0181142,0.0198858 0.00875984,0.00592126 0.0208346,0.0114842 0.0362244,0.0166929 0.0153898,0.00520866 0.0349252,0.0106535 0.0585984,0.0163386 0.0260472,0.00662598 0.0491299,0.0139685 0.0692559,0.0220157 0.020126,0.00805118 0.0368149,0.0178779 0.0500748,0.0294803 0.0132598,0.0115984 0.0233228,0.0250945 0.030189,0.0404842 0.00686614,0.0153898 0.0102992,0.0332677 0.0102992,0.0536299l0 0.00141732c0,0.0232047 -0.00438189,0.0440393 -0.0131417,0.0625078 -0.00875984,0.0184685 -0.0209527,0.0340945 -0.0365787,0.0468779 -0.015626,0.0127874 -0.0343307,0.0224921 -0.0561141,0.029122 -0.0217835,0.00662992 -0.0456968,0.00994488 -0.0717401,0.00994488z"/>
   <polygon id="_315225304" class="fil3" points="2.34046,0.185905 3.88666,0.185905 3.88666,1.7321 2.34046,1.7321 2.34046,1.31268 2.23446,1.31268 2.23446,1.8381 3.99266,1.8381 3.99266,0.0799015 2.23446,0.0799015 2.23446,0.604878 2.34046,0.604878 "/>
  </g>
 </g>
</svg>